1.9Hzhigh3min_grf.mot
version=1
nRows=12
nColumns 19
inDegrees=yes
endheader
time	1_ground_force_vx	1_ground_force_vy	1_ground_force_vz	1_ground_force_px	1_ground_force_py	1_ground_force_pz	1_ground_torque_x	1_ground_torque_y	1_ground_torque_z	2_ground_force_vx	2_ground_force_vy	2_ground_force_vz	2_ground_force_px	2_ground_force_py	2_ground_force_pz	2_ground_torque_x	2_ground_torque_y	2_ground_torque_z
            2.502500	            1.357935	          573.512134	          -17.767418	           -0.241856	            0.006399	           -0.446855	            0.004238	            1.790039	           -0.055455	           -3.829486	          532.083186	           29.540371	           -0.223323	            0.005569	           -0.667406	            0.012253	           -1.702529	           -0.094522
            2.503000	            1.084841	          567.742006	          -17.424623	           -0.241671	            0.006401	           -0.447126	            0.003237	            1.693873	           -0.051987	           -3.483798	          527.113940	           29.053209	           -0.223420	            0.005569	           -0.667301	            0.011157	           -1.688105	           -0.093044
            2.503500	            1.270257	          562.152067	          -17.036336	           -0.241715	            0.006401	           -0.447133	            0.003505	            1.550946	           -0.047002	           -3.278200	          521.961903	           28.096170	           -0.223229	            0.005569	           -0.667134	            0.010580	           -1.684516	           -0.090674
            2.504000	            1.227499	          557.100884	          -16.186603	           -0.241563	            0.006399	           -0.446820	            0.003273	            1.485530	           -0.043162	           -2.838689	          516.992113	           27.890538	           -0.223253	            0.005569	           -0.667279	            0.009181	           -1.672116	           -0.090207
            2.504500	            1.274754	          550.610935	          -16.122832	           -0.241416	            0.006400	           -0.446926	            0.003388	            1.463285	           -0.042848	           -2.821532	          512.205215	           27.591886	           -0.223061	            0.005569	           -0.666971	            0.009092	           -1.650495	           -0.088910
            2.505000	            1.827145	          543.759115	          -15.740867	           -0.241156	            0.006401	           -0.447202	            0.005309	            1.579920	           -0.045736	           -2.752955	          506.130171	           27.100902	           -0.222925	            0.005569	           -0.666900	            0.008407	           -1.545695	           -0.082765
            2.505500	            2.240459	          538.531853	          -15.856019	           -0.241298	            0.006401	           -0.447189	            0.006724	            1.616255	           -0.047587	           -2.500322	          500.976674	           26.566195	           -0.222763	            0.005568	           -0.666573	            0.007346	           -1.471905	           -0.078053
            2.506000	            2.151991	          531.498163	          -15.106386	           -0.241167	            0.006403	           -0.447551	            0.006367	            1.572616	           -0.044697	           -1.967152	          496.007557	           26.266667	           -0.222591	            0.005569	           -0.666529	            0.005873	           -1.480857	           -0.078421
            2.506500	            2.199586	          526.269060	          -14.807924	           -0.240958	            0.006402	           -0.447297	            0.006312	            1.510118	           -0.042491	           -1.482346	          491.408059	           25.546120	           -0.222543	            0.005570	           -0.666687	            0.004435	           -1.470251	           -0.076432
            2.507000	            1.881155	          519.597097	          -14.331312	           -0.240950	            0.006403	           -0.447704	            0.004731	            1.306661	           -0.036040	           -0.804680	          485.334879	           25.148733	           -0.222610	            0.005568	           -0.666303	            0.002534	           -1.528637	           -0.079210
            2.507500	            2.021411	          514.005847	          -13.667777	           -0.241059	            0.006403	           -0.447550	            0.005047	            1.283237	           -0.034122	           -0.598171	          479.996570	           24.754174	           -0.222386	            0.005568	           -0.666125	            0.001907	           -1.530294	           -0.078920
            2.508000	            2.159601	          509.139124	          -13.780700	           -0.240859	            0.006400	           -0.446964	            0.005461	            1.287395	           -0.034845	           -0.346141	          475.026773	           24.360909	           -0.222443	            0.005567	           -0.665955	            0.001113	           -1.527500	           -0.078335
